<svg xmlns="http://www.w3.org/2000/svg" xmlns:xlink="http://www.w3.org/1999/xlink" width="1420" height="938pt" viewBox="0 0 1065.23 938"><g id="graph0" class="graph" transform="scale(1 1) rotate(0) translate(4 934)"><title>G</title><polygon fill="#fff" stroke="transparent" points="-4 4 -4 -934 1061.234 -934 1061.234 4 -4 4"/><g id="clust1" class="cluster"><title>cluster_Global</title><path fill="none" stroke="silver" d="M20,-8C20,-8 1037.2338,-8 1037.2338,-8 1043.2338,-8 1049.2338,-14 1049.2338,-20 1049.2338,-20 1049.2338,-910 1049.2338,-910 1049.2338,-916 1043.2338,-922 1037.2338,-922 1037.2338,-922 20,-922 20,-922 14,-922 8,-916 8,-910 8,-910 8,-20 8,-20 8,-14 14,-8 20,-8"/><text x="528.617" y="-909.2" fill="silver" font-family="Times,serif" font-size="11" text-anchor="middle">Global</text></g><g id="clust2" class="cluster"><title>cluster_\CodeFareith</title><path fill="none" stroke="silver" d="M70.6712,-16C70.6712,-16 1029.2338,-16 1029.2338,-16 1035.2338,-16 1041.2338,-22 1041.2338,-28 1041.2338,-28 1041.2338,-664 1041.2338,-664 1041.2338,-670 1035.2338,-676 1029.2338,-676 1029.2338,-676 70.6712,-676 70.6712,-676 64.6712,-676 58.6712,-670 58.6712,-664 58.6712,-664 58.6712,-28 58.6712,-28 58.6712,-22 64.6712,-16 70.6712,-16"/><text x="549.952" y="-663.2" fill="silver" font-family="Times,serif" font-size="11" text-anchor="middle">CodeFareith</text></g><g id="clust3" class="cluster"><title>cluster_\CodeFareith\CfGoogleAuthenticator</title><path fill="none" stroke="silver" d="M78.6712,-24C78.6712,-24 1021.2338,-24 1021.2338,-24 1027.2338,-24 1033.2338,-30 1033.2338,-36 1033.2338,-36 1033.2338,-637 1033.2338,-637 1033.2338,-643 1027.2338,-649 1021.2338,-649 1021.2338,-649 78.6712,-649 78.6712,-649 72.6712,-649 66.6712,-643 66.6712,-637 66.6712,-637 66.6712,-36 66.6712,-36 66.6712,-30 72.6712,-24 78.6712,-24"/><text x="549.952" y="-636.2" fill="silver" font-family="Times,serif" font-size="11" text-anchor="middle">CfGoogleAuthenticator</text></g><g id="clust4" class="cluster"><title>cluster_\CodeFareith\CfGoogleAuthenticator\Application</title><path fill="none" stroke="silver" d="M344.8624,-32C344.8624,-32 1013.2338,-32 1013.2338,-32 1019.2338,-32 1025.2338,-38 1025.2338,-44 1025.2338,-44 1025.2338,-338 1025.2338,-338 1025.2338,-344 1019.2338,-350 1013.2338,-350 1013.2338,-350 344.8624,-350 344.8624,-350 338.8624,-350 332.8624,-344 332.8624,-338 332.8624,-338 332.8624,-44 332.8624,-44 332.8624,-38 338.8624,-32 344.8624,-32"/><text x="679.048" y="-337.2" fill="silver" font-family="Times,serif" font-size="11" text-anchor="middle">Application</text></g><g id="clust5" class="cluster"><title>cluster_\CodeFareith\CfGoogleAuthenticator\Application\Encoder</title><path fill="none" stroke="silver" d="M678.1962,-252C678.1962,-252 968.9279,-252 968.9279,-252 974.9279,-252 980.9279,-258 980.9279,-264 980.9279,-264 980.9279,-311 980.9279,-311 980.9279,-317 974.9279,-323 968.9279,-323 968.9279,-323 678.1962,-323 678.1962,-323 672.1962,-323 666.1962,-317 666.1962,-311 666.1962,-311 666.1962,-264 666.1962,-264 666.1962,-258 672.1962,-252 678.1962,-252"/><text x="823.562" y="-310.2" fill="silver" font-family="Times,serif" font-size="11" text-anchor="middle">Encoder</text></g><g id="clust6" class="cluster"><title>cluster_\CodeFareith\CfGoogleAuthenticator\Application\Exception</title><path fill="none" stroke="silver" d="M352.8624,-119C352.8624,-119 992.0317,-119 992.0317,-119 998.0317,-119 1004.0317,-125 1004.0317,-131 1004.0317,-131 1004.0317,-232 1004.0317,-232 1004.0317,-238 998.0317,-244 992.0317,-244 992.0317,-244 352.8624,-244 352.8624,-244 346.8624,-244 340.8624,-238 340.8624,-232 340.8624,-232 340.8624,-131 340.8624,-131 340.8624,-125 346.8624,-119 352.8624,-119"/><text x="672.447" y="-231.2" fill="silver" font-family="Times,serif" font-size="11" text-anchor="middle">Exception</text></g><g id="clust7" class="cluster"><title>cluster_\CodeFareith\CfGoogleAuthenticator\Application\Utility</title><path fill="none" stroke="silver" d="M885.0156,-40C885.0156,-40 1005.2338,-40 1005.2338,-40 1011.2338,-40 1017.2338,-46 1017.2338,-52 1017.2338,-52 1017.2338,-99 1017.2338,-99 1017.2338,-105 1011.2338,-111 1005.2338,-111 1005.2338,-111 885.0156,-111 885.0156,-111 879.0156,-111 873.0156,-105 873.0156,-99 873.0156,-99 873.0156,-52 873.0156,-52 873.0156,-46 879.0156,-40 885.0156,-40"/><text x="945.125" y="-98.2" fill="silver" font-family="Times,serif" font-size="11" text-anchor="middle">Utility</text></g><g id="clust8" class="cluster"><title>cluster_\CodeFareith\CfGoogleAuthenticator\Domain</title><path fill="none" stroke="silver" d="M338.2613,-358C338.2613,-358 507.4849,-358 507.4849,-358 513.4849,-358 519.4849,-364 519.4849,-370 519.4849,-370 519.4849,-610 519.4849,-610 519.4849,-616 513.4849,-622 507.4849,-622 507.4849,-622 338.2613,-622 338.2613,-622 332.2613,-622 326.2613,-616 326.2613,-610 326.2613,-610 326.2613,-370 326.2613,-370 326.2613,-364 332.2613,-358 338.2613,-358"/><text x="422.873" y="-609.2" fill="silver" font-family="Times,serif" font-size="11" text-anchor="middle">Domain</text></g><g id="clust9" class="cluster"><title>cluster_\CodeFareith\CfGoogleAuthenticator\Domain\Exception</title><path fill="none" stroke="silver" d="M369.365,-445C369.365,-445 476.3812,-445 476.3812,-445 482.3812,-445 488.3812,-451 488.3812,-457 488.3812,-457 488.3812,-504 488.3812,-504 488.3812,-510 482.3812,-516 476.3812,-516 476.3812,-516 369.365,-516 369.365,-516 363.365,-516 357.365,-510 357.365,-504 357.365,-504 357.365,-457 357.365,-457 357.365,-451 363.365,-445 369.365,-445"/><text x="422.873" y="-503.2" fill="silver" font-family="Times,serif" font-size="11" text-anchor="middle">Exception</text></g><g id="clust10" class="cluster"><title>cluster_\CodeFareith\CfGoogleAuthenticator\Domain\Validator</title><path fill="none" stroke="silver" d="M359.4634,-524C359.4634,-524 486.2828,-524 486.2828,-524 492.2828,-524 498.2828,-530 498.2828,-536 498.2828,-536 498.2828,-583 498.2828,-583 498.2828,-589 492.2828,-595 486.2828,-595 486.2828,-595 359.4634,-595 359.4634,-595 353.4634,-595 347.4634,-589 347.4634,-583 347.4634,-583 347.4634,-536 347.4634,-536 347.4634,-530 353.4634,-524 359.4634,-524"/><text x="422.873" y="-582.2" fill="silver" font-family="Times,serif" font-size="11" text-anchor="middle">Validator</text></g><g id="clust11" class="cluster"><title>cluster_\CodeFareith\CfGoogleAuthenticator\Domain\ValueObject</title><path fill="none" stroke="silver" d="M346.2613,-366C346.2613,-366 499.4849,-366 499.4849,-366 505.4849,-366 511.4849,-372 511.4849,-378 511.4849,-378 511.4849,-425 511.4849,-425 511.4849,-431 505.4849,-437 499.4849,-437 499.4849,-437 346.2613,-437 346.2613,-437 340.2613,-437 334.2613,-431 334.2613,-425 334.2613,-425 334.2613,-378 334.2613,-378 334.2613,-372 340.2613,-366 346.2613,-366"/><text x="422.873" y="-424.2" fill="silver" font-family="Times,serif" font-size="11" text-anchor="middle">ValueObject</text></g><g id="clust12" class="cluster"><title>cluster_\CodeFareith\CfGoogleAuthenticator\Exception</title><path fill="none" stroke="silver" d="M86.6712,-309C86.6712,-309 213.4906,-309 213.4906,-309 219.4906,-309 225.4906,-315 225.4906,-321 225.4906,-321 225.4906,-368 225.4906,-368 225.4906,-374 219.4906,-380 213.4906,-380 213.4906,-380 86.6712,-380 86.6712,-380 80.6712,-380 74.6712,-374 74.6712,-368 74.6712,-368 74.6712,-321 74.6712,-321 74.6712,-315 80.6712,-309 86.6712,-309"/><text x="150.081" y="-367.2" fill="silver" font-family="Times,serif" font-size="11" text-anchor="middle">Exception</text></g><g id="clust13" class="cluster"><title>cluster_Global\TYPO3</title><path fill="none" stroke="silver" d="M28,-684C28,-684 272.1618,-684 272.1618,-684 278.1618,-684 284.1618,-690 284.1618,-696 284.1618,-696 284.1618,-883 284.1618,-883 284.1618,-889 278.1618,-895 272.1618,-895 272.1618,-895 28,-895 28,-895 22,-895 16,-889 16,-883 16,-883 16,-696 16,-696 16,-690 22,-684 28,-684"/><text x="150.081" y="-882.2" fill="silver" font-family="Times,serif" font-size="11" text-anchor="middle">TYPO3</text></g><g id="clust14" class="cluster"><title>cluster_Global\TYPO3\CMS</title><path fill="none" stroke="silver" d="M36,-692C36,-692 264.1618,-692 264.1618,-692 270.1618,-692 276.1618,-698 276.1618,-704 276.1618,-704 276.1618,-856 276.1618,-856 276.1618,-862 270.1618,-868 264.1618,-868 264.1618,-868 36,-868 36,-868 30,-868 24,-862 24,-856 24,-856 24,-704 24,-704 24,-698 30,-692 36,-692"/><text x="150.081" y="-855.2" fill="silver" font-family="Times,serif" font-size="11" text-anchor="middle">CMS</text></g><g id="clust15" class="cluster"><title>cluster_Global\TYPO3\CMS\Extbase</title><path fill="none" stroke="silver" d="M44,-700C44,-700 256.1618,-700 256.1618,-700 262.1618,-700 268.1618,-706 268.1618,-712 268.1618,-712 268.1618,-829 268.1618,-829 268.1618,-835 262.1618,-841 256.1618,-841 256.1618,-841 44,-841 44,-841 38,-841 32,-835 32,-829 32,-829 32,-712 32,-712 32,-706 38,-700 44,-700"/><text x="150.081" y="-828.2" fill="silver" font-family="Times,serif" font-size="11" text-anchor="middle">Extbase</text></g><g id="clust16" class="cluster"><title>cluster_Global\TYPO3\CMS\Extbase\Validation</title><path fill="none" stroke="silver" d="M52,-708C52,-708 248.1618,-708 248.1618,-708 254.1618,-708 260.1618,-714 260.1618,-720 260.1618,-720 260.1618,-802 260.1618,-802 260.1618,-808 254.1618,-814 248.1618,-814 248.1618,-814 52,-814 52,-814 46,-814 40,-808 40,-802 40,-802 40,-720 40,-720 40,-714 46,-708 52,-708"/><text x="150.081" y="-801.2" fill="silver" font-family="Times,serif" font-size="11" text-anchor="middle">Validation</text></g><g id="clust17" class="cluster"><title>cluster_Global\TYPO3\CMS\Extbase\Validation\Validator</title><path fill="none" stroke="silver" d="M60,-716C60,-716 240.1618,-716 240.1618,-716 246.1618,-716 252.1618,-722 252.1618,-728 252.1618,-728 252.1618,-775 252.1618,-775 252.1618,-781 246.1618,-787 240.1618,-787 240.1618,-787 60,-787 60,-787 54,-787 48,-781 48,-775 48,-775 48,-728 48,-728 48,-722 54,-716 60,-716"/><text x="150.081" y="-774.2" fill="silver" font-family="Times,serif" font-size="11" text-anchor="middle">Validator</text></g><g id="node1" class="node"><title>\\CodeFareith\\CfGoogleAuthenticator\\Application\\Encoder\\Base32</title><polygon fill="none" stroke="#000" points="972.732 -296 917.517 -296 917.517 -260 972.732 -260 972.732 -296"/><text x="945.125" y="-274.7" fill="#000" font-family="Courier,monospace" font-size="11" text-anchor="middle">Base32</text></g><g id="node2" class="node"><title>\\CodeFareith\\CfGoogleAuthenticator\\Application\\Encoder\\Encoder</title><polygon fill="none" stroke="#000" points="736.508 -296 674.092 -296 674.092 -260 736.508 -260 736.508 -296"/><text x="705.3" y="-274.7" fill="#000" font-family="Courier,monospace" font-size="11" text-anchor="middle">Encoder</text></g><g id="edge1" class="edge"><title>\\CodeFareith\\CfGoogleAuthenticator\\Application\\Encoder\\Base32-&gt;\\CodeFareith\\CfGoogleAuthenticator\\Application\\Encoder\\Encoder</title><path fill="none" stroke="#000" stroke-dasharray="1 5" d="M917.1444,-278C875.1277,-278 795.4767,-278 746.7154,-278"/><polygon fill="none" stroke="#000" points="746.508 -274.5 736.508 -278 746.508 -281.5 746.508 -274.5"/></g><g id="node3" class="node"><title>\\CodeFareith\\CfGoogleAuthenticator\\Application\\Exception\\InvalidArgumentValueException</title><polygon fill="none" stroke="#000" points="809.232 -163 601.368 -163 601.368 -127 809.232 -127 809.232 -163"/><text x="705.3" y="-141.7" fill="#000" font-family="Courier,monospace" font-size="11" text-anchor="middle">InvalidArgumentValueException</text></g><g id="node6" class="node"><title>\\CodeFareith\\CfGoogleAuthenticator\\Application\\Exception\\ApplicationException</title><polygon fill="none" stroke="#000" points="496.895 -217 348.852 -217 348.852 -181 496.895 -181 496.895 -217"/><text x="422.873" y="-195.7" fill="#000" font-family="Courier,monospace" font-size="11" text-anchor="middle">ApplicationException</text></g><g id="edge3" class="edge"><title>\\CodeFareith\\CfGoogleAuthenticator\\Application\\Exception\\InvalidArgumentValueException-&gt;\\CodeFareith\\CfGoogleAuthenticator\\Application\\Exception\\ApplicationException</title><path fill="none" stroke="#000" stroke-dasharray="1 5" d="M610.8633,-163.0563C577.2932,-169.4749 539.7472,-176.6537 507.0887,-182.898"/><polygon fill="none" stroke="#000" points="506.285 -179.488 497.12 -184.804 507.599 -186.364 506.285 -179.488"/></g><g id="node13" class="node"><title>InvalidArgumentException</title><ellipse cx="422.873" cy="-702" fill="none" stroke="#000" rx="106.923" ry="18"/><text x="422.873" y="-697.8" fill="silver" font-family="Times,serif" font-size="14" text-anchor="middle">InvalidArgumentException</text></g><g id="edge2" class="edge"><title>\\CodeFareith\\CfGoogleAuthenticator\\Application\\Exception\\InvalidArgumentValueException-&gt;InvalidArgumentException</title><path fill="none" stroke="#000" d="M611.5799,-163.2194C607.963,-165.7944 604.6007,-168.7071 601.5844,-172 471.5881,-313.9175 619.3213,-428.7446 529.5844,-599 512.5085,-631.3976 481.4676,-659.5896 457.2501,-678.2487"/><polygon fill="none" stroke="#000" points="454.897 -675.639 449.003 -684.442 459.101 -681.236 454.897 -675.639"/></g><g id="node4" class="node"><title>\\CodeFareith\\CfGoogleAuthenticator\\Application\\Exception\\StringLengthViolation</title><polygon fill="none" stroke="#000" points="782.423 -217 628.177 -217 628.177 -181 782.423 -181 782.423 -217"/><text x="705.3" y="-195.7" fill="#000" font-family="Courier,monospace" font-size="11" text-anchor="middle">StringLengthViolation</text></g><g id="edge5" class="edge"><title>\\CodeFareith\\CfGoogleAuthenticator\\Application\\Exception\\StringLengthViolation-&gt;\\CodeFareith\\CfGoogleAuthenticator\\Application\\Exception\\ApplicationException</title><path fill="none" stroke="#000" stroke-dasharray="1 5" d="M628.1256,-199C590.6442,-199 545.5265,-199 507.1482,-199"/><polygon fill="none" stroke="#000" points="507.031 -195.5 497.031 -199 507.031 -202.5 507.031 -195.5"/></g><g id="node14" class="node"><title>LengthException</title><ellipse cx="422.873" cy="-756" fill="none" stroke="#000" rx="71.019" ry="18"/><text x="422.873" y="-751.8" fill="silver" font-family="Times,serif" font-size="14" text-anchor="middle">LengthException</text></g><g id="edge4" class="edge"><title>\\CodeFareith\\CfGoogleAuthenticator\\Application\\Exception\\StringLengthViolation-&gt;LengthException</title><path fill="none" stroke="#000" d="M642.0771,-217.0662C626.6801,-224.329 611.7393,-234.3327 601.5844,-248 472.6667,-421.5084 674.6635,-568.7596 529.5844,-729 521.8467,-737.5463 511.8298,-743.5641 501.0375,-747.7704"/><polygon fill="none" stroke="#000" points="499.752 -744.51 491.392 -751.019 501.986 -751.144 499.752 -744.51"/></g><g id="node5" class="node"><title>\\CodeFareith\\CfGoogleAuthenticator\\Application\\Exception\\ValueTooSmall</title><polygon fill="none" stroke="#000" points="995.939 -163 894.311 -163 894.311 -127 995.939 -127 995.939 -163"/><text x="945.125" y="-141.7" fill="#000" font-family="Courier,monospace" font-size="11" text-anchor="middle">ValueTooSmall</text></g><g id="edge6" class="edge"><title>\\CodeFareith\\CfGoogleAuthenticator\\Application\\Exception\\ValueTooSmall-&gt;\\CodeFareith\\CfGoogleAuthenticator\\Application\\Exception\\InvalidArgumentValueException</title><path fill="none" stroke="#000" d="M894.2641,-145C872.3183,-145 845.6916,-145 819.4351,-145"/><polygon fill="none" stroke="#000" points="819.401 -141.5 809.401 -145 819.401 -148.5 819.401 -141.5"/></g><g id="node11" class="node"><title>\\CodeFareith\\CfGoogleAuthenticator\\Exception\\ExtensionException</title><polygon fill="none" stroke="#000" points="217.4 -353 82.761 -353 82.761 -317 217.4 -317 217.4 -353"/><text x="150.081" y="-331.7" fill="#000" font-family="Courier,monospace" font-size="11" text-anchor="middle">ExtensionException</text></g><g id="edge8" class="edge"><title>\\CodeFareith\\CfGoogleAuthenticator\\Application\\Exception\\ApplicationException-&gt;\\CodeFareith\\CfGoogleAuthenticator\\Exception\\ExtensionException</title><path fill="none" stroke="#000" d="M386.6484,-217.0597C337.3265,-241.6491 249.0573,-285.6555 195.4051,-312.4037"/><polygon fill="none" stroke="#000" points="193.843 -309.271 186.455 -316.866 196.966 -315.536 193.843 -309.271"/></g><g id="node7" class="node"><title>\\CodeFareith\\CfGoogleAuthenticator\\Application\\Utility\\ExtensionMetaData</title><polygon fill="none" stroke="#000" points="1009.343 -84 880.906 -84 880.906 -48 1009.343 -48 1009.343 -84"/><text x="945.125" y="-62.7" fill="#000" font-family="Courier,monospace" font-size="11" text-anchor="middle">ExtensionMetaData</text></g><g id="node8" class="node"><title>\\CodeFareith\\CfGoogleAuthenticator\\Domain\\Exception\\DomainException</title><polygon fill="none" stroke="#000" points="480.389 -489 365.357 -489 365.357 -453 480.389 -453 480.389 -489"/><text x="422.873" y="-467.7" fill="#000" font-family="Courier,monospace" font-size="11" text-anchor="middle">DomainException</text></g><g id="edge9" class="edge"><title>\\CodeFareith\\CfGoogleAuthenticator\\Domain\\Exception\\DomainException-&gt;\\CodeFareith\\CfGoogleAuthenticator\\Exception\\ExtensionException</title><path fill="none" stroke="#000" d="M365.2901,-458.1407C349.0571,-453.6299 331.6177,-447.9219 316.1618,-441 266.2983,-418.6688 214.0038,-382.939 181.7233,-359.2236"/><polygon fill="none" stroke="#000" points="183.682 -356.318 173.565 -353.172 179.511 -361.941 183.682 -356.318"/></g><g id="node9" class="node"><title>\\CodeFareith\\CfGoogleAuthenticator\\Domain\\Validator\\SetupFormValidator</title><polygon fill="none" stroke="#000" points="490.193 -568 355.554 -568 355.554 -532 490.193 -532 490.193 -568"/><text x="422.873" y="-546.7" fill="#000" font-family="Courier,monospace" font-size="11" text-anchor="middle">SetupFormValidator</text></g><g id="node12" class="node"><title>GenericObjectValidator</title><ellipse cx="150.081" cy="-742" fill="none" stroke="#000" rx="94.162" ry="18"/><text x="150.081" y="-737.8" fill="silver" font-family="Times,serif" font-size="14" text-anchor="middle">GenericObjectValidator</text></g><g id="edge7" class="edge"><title>\\CodeFareith\\CfGoogleAuthenticator\\Domain\\Validator\\SetupFormValidator-&gt;GenericObjectValidator</title><path fill="none" stroke="#000" d="M355.5392,-557.5681C341.9723,-560.8066 328.1957,-565.4229 316.1618,-572 250.9678,-607.6315 195.319,-677.2438 168.0417,-715.4061"/><polygon fill="none" stroke="#000" points="164.927 -713.751 162.038 -723.944 170.653 -717.777 164.927 -713.751"/></g><g id="node10" class="node"><title>\\CodeFareith\\CfGoogleAuthenticator\\Domain\\ValueObject\\ExtensionConfiguration</title><polygon fill="none" stroke="#000" points="503.597 -410 342.149 -410 342.149 -374 503.597 -374 503.597 -410"/><text x="422.873" y="-388.7" fill="#000" font-family="Courier,monospace" font-size="11" text-anchor="middle">ExtensionConfiguration</text></g></g></svg>