<svg xmlns="http://www.w3.org/2000/svg" xmlns:xlink="http://www.w3.org/1999/xlink" width="1571pt" height="2852pt" viewBox="0 0 1570.67 2852"><g id="graph0" class="graph" transform="scale(1 1) rotate(0) translate(4 2848)"><title>G</title><polygon fill="#fff" stroke="transparent" points="-4 4 -4 -2848 1566.671 -2848 1566.671 4 -4 4"/><g id="clust1" class="cluster"><title>cluster_Global</title><path fill="none" stroke="silver" d="M20,-206C20,-206 1542.6713,-206 1542.6713,-206 1548.6713,-206 1554.6713,-212 1554.6713,-218 1554.6713,-218 1554.6713,-2824 1554.6713,-2824 1554.6713,-2830 1548.6713,-2836 1542.6713,-2836 1542.6713,-2836 20,-2836 20,-2836 14,-2836 8,-2830 8,-2824 8,-2824 8,-218 8,-218 8,-212 14,-206 20,-206"/><text x="781.336" y="-2823.2" fill="silver" font-family="Times,serif" font-size="11" text-anchor="middle">Global</text></g><g id="clust2" class="cluster"><title>cluster_\CodeFareith</title><path fill="none" stroke="silver" d="M179.5501,-214C179.5501,-214 1534.6713,-214 1534.6713,-214 1540.6713,-214 1546.6713,-220 1546.6713,-226 1546.6713,-226 1546.6713,-2578 1546.6713,-2578 1546.6713,-2584 1540.6713,-2590 1534.6713,-2590 1534.6713,-2590 179.5501,-2590 179.5501,-2590 173.5501,-2590 167.5501,-2584 167.5501,-2578 167.5501,-2578 167.5501,-226 167.5501,-226 167.5501,-220 173.5501,-214 179.5501,-214"/><text x="857.111" y="-2577.2" fill="silver" font-family="Times,serif" font-size="11" text-anchor="middle">CodeFareith</text></g><g id="clust3" class="cluster"><title>cluster_\CodeFareith\CfGoogleAuthenticator</title><path fill="none" stroke="silver" d="M187.5501,-222C187.5501,-222 1526.6713,-222 1526.6713,-222 1532.6713,-222 1538.6713,-228 1538.6713,-234 1538.6713,-234 1538.6713,-2551 1538.6713,-2551 1538.6713,-2557 1532.6713,-2563 1526.6713,-2563 1526.6713,-2563 187.5501,-2563 187.5501,-2563 181.5501,-2563 175.5501,-2557 175.5501,-2551 175.5501,-2551 175.5501,-234 175.5501,-234 175.5501,-228 181.5501,-222 187.5501,-222"/><text x="857.111" y="-2550.2" fill="silver" font-family="Times,serif" font-size="11" text-anchor="middle">CfGoogleAuthenticator</text></g><g id="clust4" class="cluster"><title>cluster_\CodeFareith\CfGoogleAuthenticator\Controller</title><path fill="none" stroke="silver" d="M1319.7428,-1954C1319.7428,-1954 1482.3654,-1954 1482.3654,-1954 1488.3654,-1954 1494.3654,-1960 1494.3654,-1966 1494.3654,-1966 1494.3654,-2127 1494.3654,-2127 1494.3654,-2133 1488.3654,-2139 1482.3654,-2139 1482.3654,-2139 1319.7428,-2139 1319.7428,-2139 1313.7428,-2139 1307.7428,-2133 1307.7428,-2127 1307.7428,-2127 1307.7428,-1966 1307.7428,-1966 1307.7428,-1960 1313.7428,-1954 1319.7428,-1954"/><text x="1401.054" y="-2126.2" fill="silver" font-family="Times,serif" font-size="11" text-anchor="middle">Controller</text></g><g id="clust5" class="cluster"><title>cluster_\CodeFareith\CfGoogleAuthenticator\Controller\Backend</title><path fill="none" stroke="silver" d="M1327.7428,-1962C1327.7428,-1962 1474.3654,-1962 1474.3654,-1962 1480.3654,-1962 1486.3654,-1968 1486.3654,-1974 1486.3654,-1974 1486.3654,-2021 1486.3654,-2021 1486.3654,-2027 1480.3654,-2033 1474.3654,-2033 1474.3654,-2033 1327.7428,-2033 1327.7428,-2033 1321.7428,-2033 1315.7428,-2027 1315.7428,-2021 1315.7428,-2021 1315.7428,-1974 1315.7428,-1974 1315.7428,-1968 1321.7428,-1962 1327.7428,-1962"/><text x="1401.054" y="-2020.2" fill="silver" font-family="Times,serif" font-size="11" text-anchor="middle">Backend</text></g><g id="clust6" class="cluster"><title>cluster_\CodeFareith\CfGoogleAuthenticator\Controller\Frontend</title><path fill="none" stroke="silver" d="M1347.546,-2041C1347.546,-2041 1454.5622,-2041 1454.5622,-2041 1460.5622,-2041 1466.5622,-2047 1466.5622,-2053 1466.5622,-2053 1466.5622,-2100 1466.5622,-2100 1466.5622,-2106 1460.5622,-2112 1454.5622,-2112 1454.5622,-2112 1347.546,-2112 1347.546,-2112 1341.546,-2112 1335.546,-2106 1335.546,-2100 1335.546,-2100 1335.546,-2053 1335.546,-2053 1335.546,-2047 1341.546,-2041 1347.546,-2041"/><text x="1401.054" y="-2099.2" fill="silver" font-family="Times,serif" font-size="11" text-anchor="middle">Frontend</text></g><g id="clust7" class="cluster"><title>cluster_\CodeFareith\CfGoogleAuthenticator\Application</title><path fill="none" stroke="silver" d="M685.6349,-1231C685.6349,-1231 1469.1632,-1231 1469.1632,-1231 1475.1632,-1231 1481.1632,-1237 1481.1632,-1243 1481.1632,-1243 1481.1632,-1537 1481.1632,-1537 1481.1632,-1543 1475.1632,-1549 1469.1632,-1549 1469.1632,-1549 685.6349,-1549 685.6349,-1549 679.6349,-1549 673.6349,-1543 673.6349,-1537 673.6349,-1537 673.6349,-1243 673.6349,-1243 673.6349,-1237 679.6349,-1231 685.6349,-1231"/><text x="1077.399" y="-1536.2" fill="silver" font-family="Times,serif" font-size="11" text-anchor="middle">Application</text></g><g id="clust8" class="cluster"><title>cluster_\CodeFareith\CfGoogleAuthenticator\Application\Exception</title><path fill="none" stroke="silver" d="M693.6349,-1397C693.6349,-1397 1447.9611,-1397 1447.9611,-1397 1453.9611,-1397 1459.9611,-1403 1459.9611,-1409 1459.9611,-1409 1459.9611,-1510 1459.9611,-1510 1459.9611,-1516 1453.9611,-1522 1447.9611,-1522 1447.9611,-1522 693.6349,-1522 693.6349,-1522 687.6349,-1522 681.6349,-1516 681.6349,-1510 681.6349,-1510 681.6349,-1409 681.6349,-1409 681.6349,-1403 687.6349,-1397 693.6349,-1397"/><text x="1070.798" y="-1509.2" fill="silver" font-family="Times,serif" font-size="11" text-anchor="middle">Exception</text></g><g id="clust9" class="cluster"><title>cluster_\CodeFareith\CfGoogleAuthenticator\Application\Encoder</title><path fill="none" stroke="silver" d="M1056.8964,-1318C1056.8964,-1318 1424.8573,-1318 1424.8573,-1318 1430.8573,-1318 1436.8573,-1324 1436.8573,-1330 1436.8573,-1330 1436.8573,-1377 1436.8573,-1377 1436.8573,-1383 1430.8573,-1389 1424.8573,-1389 1424.8573,-1389 1056.8964,-1389 1056.8964,-1389 1050.8964,-1389 1044.8964,-1383 1044.8964,-1377 1044.8964,-1377 1044.8964,-1330 1044.8964,-1330 1044.8964,-1324 1050.8964,-1318 1056.8964,-1318"/><text x="1240.877" y="-1376.2" fill="silver" font-family="Times,serif" font-size="11" text-anchor="middle">Encoder</text></g><g id="clust10" class="cluster"><title>cluster_\CodeFareith\CfGoogleAuthenticator\Application\Utility</title><path fill="none" stroke="silver" d="M1340.945,-1239C1340.945,-1239 1461.1632,-1239 1461.1632,-1239 1467.1632,-1239 1473.1632,-1245 1473.1632,-1251 1473.1632,-1251 1473.1632,-1298 1473.1632,-1298 1473.1632,-1304 1467.1632,-1310 1461.1632,-1310 1461.1632,-1310 1340.945,-1310 1340.945,-1310 1334.945,-1310 1328.945,-1304 1328.945,-1298 1328.945,-1298 1328.945,-1251 1328.945,-1251 1328.945,-1245 1334.945,-1239 1340.945,-1239"/><text x="1401.054" y="-1297.2" fill="silver" font-family="Times,serif" font-size="11" text-anchor="middle">Utility</text></g><g id="clust11" class="cluster"><title>cluster_\CodeFareith\CfGoogleAuthenticator\Domain</title><path fill="none" stroke="silver" d="M195.5501,-1557C195.5501,-1557 884.5634,-1557 884.5634,-1557 890.5634,-1557 896.5634,-1563 896.5634,-1569 896.5634,-1569 896.5634,-2524 896.5634,-2524 896.5634,-2530 890.5634,-2536 884.5634,-2536 884.5634,-2536 195.5501,-2536 195.5501,-2536 189.5501,-2536 183.5501,-2530 183.5501,-2524 183.5501,-2524 183.5501,-1569 183.5501,-1569 183.5501,-1563 189.5501,-1557 195.5501,-1557"/><text x="540.057" y="-2523.2" fill="silver" font-family="Times,serif" font-size="11" text-anchor="middle">Domain</text></g><g id="clust12" class="cluster"><title>cluster_\CodeFareith\CfGoogleAuthenticator\Domain\ValueObject</title><path fill="none" stroke="silver" d="M687.0339,-2438C687.0339,-2438 840.2575,-2438 840.2575,-2438 846.2575,-2438 852.2575,-2444 852.2575,-2450 852.2575,-2450 852.2575,-2497 852.2575,-2497 852.2575,-2503 846.2575,-2509 840.2575,-2509 840.2575,-2509 687.0339,-2509 687.0339,-2509 681.0339,-2509 675.0339,-2503 675.0339,-2497 675.0339,-2497 675.0339,-2450 675.0339,-2450 675.0339,-2444 681.0339,-2438 687.0339,-2438"/><text x="763.646" y="-2496.2" fill="silver" font-family="Times,serif" font-size="11" text-anchor="middle">ValueObject</text></g><g id="clust13" class="cluster"><title>cluster_\CodeFareith\CfGoogleAuthenticator\Domain\Validator</title><path fill="none" stroke="silver" d="M700.236,-2280C700.236,-2280 827.0553,-2280 827.0553,-2280 833.0553,-2280 839.0553,-2286 839.0553,-2292 839.0553,-2292 839.0553,-2339 839.0553,-2339 839.0553,-2345 833.0553,-2351 827.0553,-2351 827.0553,-2351 700.236,-2351 700.236,-2351 694.236,-2351 688.236,-2345 688.236,-2339 688.236,-2339 688.236,-2292 688.236,-2292 688.236,-2286 694.236,-2280 700.236,-2280"/><text x="763.646" y="-2338.2" fill="silver" font-family="Times,serif" font-size="11" text-anchor="middle">Validator</text></g><g id="clust14" class="cluster"><title>cluster_\CodeFareith\CfGoogleAuthenticator\Domain\Exception</title><path fill="none" stroke="silver" d="M710.1376,-2359C710.1376,-2359 817.1537,-2359 817.1537,-2359 823.1537,-2359 829.1537,-2365 829.1537,-2371 829.1537,-2371 829.1537,-2418 829.1537,-2418 829.1537,-2424 823.1537,-2430 817.1537,-2430 817.1537,-2430 710.1376,-2430 710.1376,-2430 704.1376,-2430 698.1376,-2424 698.1376,-2418 698.1376,-2418 698.1376,-2371 698.1376,-2371 698.1376,-2365 704.1376,-2359 710.1376,-2359"/><text x="763.646" y="-2417.2" fill="silver" font-family="Times,serif" font-size="11" text-anchor="middle">Exception</text></g><g id="clust15" class="cluster"><title>cluster_\CodeFareith\CfGoogleAuthenticator\Domain\DataTransferObject</title><path fill="none" stroke="silver" d="M660.6296,-2147C660.6296,-2147 866.6618,-2147 866.6618,-2147 872.6618,-2147 878.6618,-2153 878.6618,-2159 878.6618,-2159 878.6618,-2260 878.6618,-2260 878.6618,-2266 872.6618,-2272 866.6618,-2272 866.6618,-2272 660.6296,-2272 660.6296,-2272 654.6296,-2272 648.6296,-2266 648.6296,-2260 648.6296,-2260 648.6296,-2159 648.6296,-2159 648.6296,-2153 654.6296,-2147 660.6296,-2147"/><text x="763.646" y="-2259.2" fill="silver" font-family="Times,serif" font-size="11" text-anchor="middle">DataTransferObject</text></g><g id="clust16" class="cluster"><title>cluster_\CodeFareith\CfGoogleAuthenticator\Domain\Form</title><path fill="none" stroke="silver" d="M433.7401,-2068C433.7401,-2068 797.3505,-2068 797.3505,-2068 803.3505,-2068 809.3505,-2074 809.3505,-2080 809.3505,-2080 809.3505,-2127 809.3505,-2127 809.3505,-2133 803.3505,-2139 797.3505,-2139 797.3505,-2139 433.7401,-2139 433.7401,-2139 427.7401,-2139 421.7401,-2133 421.7401,-2127 421.7401,-2127 421.7401,-2080 421.7401,-2080 421.7401,-2074 427.7401,-2068 433.7401,-2068"/><text x="615.545" y="-2126.2" fill="silver" font-family="Times,serif" font-size="11" text-anchor="middle">Form</text></g><g id="clust17" class="cluster"><title>cluster_\CodeFareith\CfGoogleAuthenticator\Domain\Immutable</title><path fill="none" stroke="silver" d="M417.2374,-1989C417.2374,-1989 833.6564,-1989 833.6564,-1989 839.6564,-1989 845.6564,-1995 845.6564,-2001 845.6564,-2001 845.6564,-2048 845.6564,-2048 845.6564,-2054 839.6564,-2060 833.6564,-2060 833.6564,-2060 417.2374,-2060 417.2374,-2060 411.2374,-2060 405.2374,-2054 405.2374,-2048 405.2374,-2048 405.2374,-2001 405.2374,-2001 405.2374,-1995 411.2374,-1989 417.2374,-1989"/><text x="625.447" y="-2047.2" fill="silver" font-family="Times,serif" font-size="11" text-anchor="middle">Immutable</text></g><g id="clust18" class="cluster"><title>cluster_\CodeFareith\CfGoogleAuthenticator\Domain\Mapper</title><path fill="none" stroke="silver" d="M203.5501,-1910C203.5501,-1910 876.5634,-1910 876.5634,-1910 882.5634,-1910 888.5634,-1916 888.5634,-1922 888.5634,-1922 888.5634,-1969 888.5634,-1969 888.5634,-1975 882.5634,-1981 876.5634,-1981 876.5634,-1981 203.5501,-1981 203.5501,-1981 197.5501,-1981 191.5501,-1975 191.5501,-1969 191.5501,-1969 191.5501,-1922 191.5501,-1922 191.5501,-1916 197.5501,-1910 203.5501,-1910"/><text x="540.057" y="-1968.2" fill="silver" font-family="Times,serif" font-size="11" text-anchor="middle">Mapper</text></g><g id="clust19" class="cluster"><title>cluster_\CodeFareith\CfGoogleAuthenticator\Domain\Model</title><path fill="none" stroke="silver" d="M720.0392,-1698C720.0392,-1698 807.2521,-1698 807.2521,-1698 813.2521,-1698 819.2521,-1704 819.2521,-1710 819.2521,-1710 819.2521,-1811 819.2521,-1811 819.2521,-1817 813.2521,-1823 807.2521,-1823 807.2521,-1823 720.0392,-1823 720.0392,-1823 714.0392,-1823 708.0392,-1817 708.0392,-1811 708.0392,-1811 708.0392,-1710 708.0392,-1710 708.0392,-1704 714.0392,-1698 720.0392,-1698"/><text x="763.646" y="-1810.2" fill="silver" font-family="Times,serif" font-size="11" text-anchor="middle">Model</text></g><g id="clust20" class="cluster"><title>cluster_\CodeFareith\CfGoogleAuthenticator\Domain\Repository</title><path fill="none" stroke="silver" d="M687.0339,-1565C687.0339,-1565 840.2575,-1565 840.2575,-1565 846.2575,-1565 852.2575,-1571 852.2575,-1577 852.2575,-1577 852.2575,-1678 852.2575,-1678 852.2575,-1684 846.2575,-1690 840.2575,-1690 840.2575,-1690 687.0339,-1690 687.0339,-1690 681.0339,-1690 675.0339,-1684 675.0339,-1678 675.0339,-1678 675.0339,-1577 675.0339,-1577 675.0339,-1571 681.0339,-1565 687.0339,-1565"/><text x="763.646" y="-1677.2" fill="silver" font-family="Times,serif" font-size="11" text-anchor="middle">Repository</text></g><g id="clust21" class="cluster"><title>cluster_\CodeFareith\CfGoogleAuthenticator\Domain\Struct</title><path fill="none" stroke="silver" d="M203.5501,-1831C203.5501,-1831 856.7602,-1831 856.7602,-1831 862.7602,-1831 868.7602,-1837 868.7602,-1843 868.7602,-1843 868.7602,-1890 868.7602,-1890 868.7602,-1896 862.7602,-1902 856.7602,-1902 856.7602,-1902 203.5501,-1902 203.5501,-1902 197.5501,-1902 191.5501,-1896 191.5501,-1890 191.5501,-1890 191.5501,-1843 191.5501,-1843 191.5501,-1837 197.5501,-1831 203.5501,-1831"/><text x="530.155" y="-1889.2" fill="silver" font-family="Times,serif" font-size="11" text-anchor="middle">Struct</text></g><g id="clust22" class="cluster"><title>cluster_\CodeFareith\CfGoogleAuthenticator\Exception</title><path fill="none" stroke="silver" d="M404.0352,-230C404.0352,-230 557.2589,-230 557.2589,-230 563.2589,-230 569.2589,-236 569.2589,-242 569.2589,-242 569.2589,-451 569.2589,-451 569.2589,-457 563.2589,-463 557.2589,-463 557.2589,-463 404.0352,-463 404.0352,-463 398.0352,-463 392.0352,-457 392.0352,-451 392.0352,-451 392.0352,-242 392.0352,-242 392.0352,-236 398.0352,-230 404.0352,-230"/><text x="480.647" y="-450.2" fill="silver" font-family="Times,serif" font-size="11" text-anchor="middle">Exception</text></g><g id="clust23" class="cluster"><title>cluster_\CodeFareith\CfGoogleAuthenticator\Handler</title><path fill="none" stroke="silver" d="M1294.7375,-1152C1294.7375,-1152 1507.3708,-1152 1507.3708,-1152 1513.3708,-1152 1519.3708,-1158 1519.3708,-1164 1519.3708,-1164 1519.3708,-1211 1519.3708,-1211 1519.3708,-1217 1513.3708,-1223 1507.3708,-1223 1507.3708,-1223 1294.7375,-1223 1294.7375,-1223 1288.7375,-1223 1282.7375,-1217 1282.7375,-1211 1282.7375,-1211 1282.7375,-1164 1282.7375,-1164 1282.7375,-1158 1288.7375,-1152 1294.7375,-1152"/><text x="1401.054" y="-1210.2" fill="silver" font-family="Times,serif" font-size="11" text-anchor="middle">Handler</text></g><g id="clust24" class="cluster"><title>cluster_\CodeFareith\CfGoogleAuthenticator\Hook</title><path fill="none" stroke="silver" d="M1357.4477,-965C1357.4477,-965 1444.6605,-965 1444.6605,-965 1450.6605,-965 1456.6605,-971 1456.6605,-977 1456.6605,-977 1456.6605,-1132 1456.6605,-1132 1456.6605,-1138 1450.6605,-1144 1444.6605,-1144 1444.6605,-1144 1357.4477,-1144 1357.4477,-1144 1351.4477,-1144 1345.4477,-1138 1345.4477,-1132 1345.4477,-1132 1345.4477,-977 1345.4477,-977 1345.4477,-971 1351.4477,-965 1357.4477,-965"/><text x="1401.054" y="-1131.2" fill="silver" font-family="Times,serif" font-size="11" text-anchor="middle">Hook</text></g><g id="clust25" class="cluster"><title>cluster_\CodeFareith\CfGoogleAuthenticator\Provider</title><path fill="none" stroke="silver" d="M1283.4369,-718C1283.4369,-718 1518.6713,-718 1518.6713,-718 1524.6713,-718 1530.6713,-724 1530.6713,-730 1530.6713,-730 1530.6713,-812 1530.6713,-812 1530.6713,-818 1524.6713,-824 1518.6713,-824 1518.6713,-824 1283.4369,-824 1283.4369,-824 1277.4369,-824 1271.4369,-818 1271.4369,-812 1271.4369,-812 1271.4369,-730 1271.4369,-730 1271.4369,-724 1277.4369,-718 1283.4369,-718"/><text x="1401.054" y="-811.2" fill="silver" font-family="Times,serif" font-size="11" text-anchor="middle">Provider</text></g><g id="clust26" class="cluster"><title>cluster_\CodeFareith\CfGoogleAuthenticator\Provider\Login</title><path fill="none" stroke="silver" d="M1291.4369,-726C1291.4369,-726 1510.6713,-726 1510.6713,-726 1516.6713,-726 1522.6713,-732 1522.6713,-738 1522.6713,-738 1522.6713,-785 1522.6713,-785 1522.6713,-791 1516.6713,-797 1510.6713,-797 1510.6713,-797 1291.4369,-797 1291.4369,-797 1285.4369,-797 1279.4369,-791 1279.4369,-785 1279.4369,-785 1279.4369,-738 1279.4369,-738 1279.4369,-732 1285.4369,-726 1291.4369,-726"/><text x="1401.054" y="-784.2" fill="silver" font-family="Times,serif" font-size="11" text-anchor="middle">Login</text></g><g id="clust27" class="cluster"><title>cluster_\CodeFareith\CfGoogleAuthenticator\Service</title><path fill="none" stroke="silver" d="M1000.7873,-832C1000.7873,-832 1490.8681,-832 1490.8681,-832 1496.8681,-832 1502.8681,-838 1502.8681,-844 1502.8681,-844 1502.8681,-945 1502.8681,-945 1502.8681,-951 1496.8681,-957 1490.8681,-957 1490.8681,-957 1000.7873,-957 1000.7873,-957 994.7873,-957 988.7873,-951 988.7873,-945 988.7873,-945 988.7873,-844 988.7873,-844 988.7873,-838 994.7873,-832 1000.7873,-832"/><text x="1245.828" y="-944.2" fill="silver" font-family="Times,serif" font-size="11" text-anchor="middle">Service</text></g><g id="clust28" class="cluster"><title>cluster_\CodeFareith\CfGoogleAuthenticator\Traits</title><path fill="none" stroke="silver" d="M1307.9396,-639C1307.9396,-639 1494.1686,-639 1494.1686,-639 1500.1686,-639 1506.1686,-645 1506.1686,-651 1506.1686,-651 1506.1686,-698 1506.1686,-698 1506.1686,-704 1500.1686,-710 1494.1686,-710 1494.1686,-710 1307.9396,-710 1307.9396,-710 1301.9396,-710 1295.9396,-704 1295.9396,-698 1295.9396,-698 1295.9396,-651 1295.9396,-651 1295.9396,-645 1301.9396,-639 1307.9396,-639"/><text x="1401.054" y="-697.2" fill="silver" font-family="Times,serif" font-size="11" text-anchor="middle">Traits</text></g><g id="clust29" class="cluster"><title>cluster_\CodeFareith\CfGoogleAuthenticator\Utility</title><path fill="none" stroke="silver" d="M1311.2401,-344C1311.2401,-344 1490.8681,-344 1490.8681,-344 1496.8681,-344 1502.8681,-350 1502.8681,-356 1502.8681,-356 1502.8681,-619 1502.8681,-619 1502.8681,-625 1496.8681,-631 1490.8681,-631 1490.8681,-631 1311.2401,-631 1311.2401,-631 1305.2401,-631 1299.2401,-625 1299.2401,-619 1299.2401,-619 1299.2401,-356 1299.2401,-356 1299.2401,-350 1305.2401,-344 1311.2401,-344"/><text x="1401.054" y="-618.2" fill="silver" font-family="Times,serif" font-size="11" text-anchor="middle">Utility</text></g><g id="clust30" class="cluster"><title>cluster_\CodeFareith\CfGoogleAuthenticator\Validation</title><path fill="none" stroke="silver" d="M1329.6444,-230C1329.6444,-230 1472.4638,-230 1472.4638,-230 1478.4638,-230 1484.4638,-236 1484.4638,-242 1484.4638,-242 1484.4638,-324 1484.4638,-324 1484.4638,-330 1478.4638,-336 1472.4638,-336 1472.4638,-336 1329.6444,-336 1329.6444,-336 1323.6444,-336 1317.6444,-330 1317.6444,-324 1317.6444,-324 1317.6444,-242 1317.6444,-242 1317.6444,-236 1323.6444,-230 1329.6444,-230"/><text x="1401.054" y="-323.2" fill="silver" font-family="Times,serif" font-size="11" text-anchor="middle">Validation</text></g><g id="clust31" class="cluster"><title>cluster_\CodeFareith\CfGoogleAuthenticator\Validation\Validator</title><path fill="none" stroke="silver" d="M1337.6444,-238C1337.6444,-238 1464.4638,-238 1464.4638,-238 1470.4638,-238 1476.4638,-244 1476.4638,-250 1476.4638,-250 1476.4638,-297 1476.4638,-297 1476.4638,-303 1470.4638,-309 1464.4638,-309 1464.4638,-309 1337.6444,-309 1337.6444,-309 1331.6444,-309 1325.6444,-303 1325.6444,-297 1325.6444,-297 1325.6444,-250 1325.6444,-250 1325.6444,-244 1331.6444,-238 1337.6444,-238"/><text x="1401.054" y="-296.2" fill="silver" font-family="Times,serif" font-size="11" text-anchor="middle">Validator</text></g><g id="clust32" class="cluster"><title>cluster_Global\TYPO3</title><path fill="none" stroke="silver" d="M985.4745,-2598C985.4745,-2598 1182.5258,-2598 1182.5258,-2598 1188.5258,-2598 1194.5258,-2604 1194.5258,-2610 1194.5258,-2610 1194.5258,-2797 1194.5258,-2797 1194.5258,-2803 1188.5258,-2809 1182.5258,-2809 1182.5258,-2809 985.4745,-2809 985.4745,-2809 979.4745,-2809 973.4745,-2803 973.4745,-2797 973.4745,-2797 973.4745,-2610 973.4745,-2610 973.4745,-2604 979.4745,-2598 985.4745,-2598"/><text x="1084" y="-2796.2" fill="silver" font-family="Times,serif" font-size="11" text-anchor="middle">TYPO3</text></g><g id="clust33" class="cluster"><title>cluster_Global\TYPO3\CMS</title><path fill="none" stroke="silver" d="M993.4745,-2606C993.4745,-2606 1174.5258,-2606 1174.5258,-2606 1180.5258,-2606 1186.5258,-2612 1186.5258,-2618 1186.5258,-2618 1186.5258,-2770 1186.5258,-2770 1186.5258,-2776 1180.5258,-2782 1174.5258,-2782 1174.5258,-2782 993.4745,-2782 993.4745,-2782 987.4745,-2782 981.4745,-2776 981.4745,-2770 981.4745,-2770 981.4745,-2618 981.4745,-2618 981.4745,-2612 987.4745,-2606 993.4745,-2606"/><text x="1084" y="-2769.2" fill="silver" font-family="Times,serif" font-size="11" text-anchor="middle">CMS</text></g><g id="clust34" class="cluster"><title>cluster_Global\TYPO3\CMS\Extbase</title><path fill="none" stroke="silver" d="M1001.4745,-2614C1001.4745,-2614 1166.5258,-2614 1166.5258,-2614 1172.5258,-2614 1178.5258,-2620 1178.5258,-2626 1178.5258,-2626 1178.5258,-2743 1178.5258,-2743 1178.5258,-2749 1172.5258,-2755 1166.5258,-2755 1166.5258,-2755 1001.4745,-2755 1001.4745,-2755 995.4745,-2755 989.4745,-2749 989.4745,-2743 989.4745,-2743 989.4745,-2626 989.4745,-2626 989.4745,-2620 995.4745,-2614 1001.4745,-2614"/><text x="1084" y="-2742.2" fill="silver" font-family="Times,serif" font-size="11" text-anchor="middle">Extbase</text></g><g id="clust35" class="cluster"><title>cluster_Global\TYPO3\CMS\Extbase\Mvc</title><path fill="none" stroke="silver" d="M1009.4745,-2622C1009.4745,-2622 1158.5258,-2622 1158.5258,-2622 1164.5258,-2622 1170.5258,-2628 1170.5258,-2634 1170.5258,-2634 1170.5258,-2716 1170.5258,-2716 1170.5258,-2722 1164.5258,-2728 1158.5258,-2728 1158.5258,-2728 1009.4745,-2728 1009.4745,-2728 1003.4745,-2728 997.4745,-2722 997.4745,-2716 997.4745,-2716 997.4745,-2634 997.4745,-2634 997.4745,-2628 1003.4745,-2622 1009.4745,-2622"/><text x="1084" y="-2715.2" fill="silver" font-family="Times,serif" font-size="11" text-anchor="middle">Mvc</text></g><g id="clust36" class="cluster"><title>cluster_Global\TYPO3\CMS\Extbase\Mvc\Controller</title><path fill="none" stroke="silver" d="M1017.4745,-2630C1017.4745,-2630 1150.5258,-2630 1150.5258,-2630 1156.5258,-2630 1162.5258,-2636 1162.5258,-2642 1162.5258,-2642 1162.5258,-2689 1162.5258,-2689 1162.5258,-2695 1156.5258,-2701 1150.5258,-2701 1150.5258,-2701 1017.4745,-2701 1017.4745,-2701 1011.4745,-2701 1005.4745,-2695 1005.4745,-2689 1005.4745,-2689 1005.4745,-2642 1005.4745,-2642 1005.4745,-2636 1011.4745,-2630 1017.4745,-2630"/><text x="1084" y="-2688.2" fill="silver" font-family="Times,serif" font-size="11" text-anchor="middle">Controller</text></g><g id="node1" class="node"><title>\\CodeFareith\\CfGoogleAuthenticator\\Controller\\Backend\\SetupModuleController</title><polygon fill="none" stroke="#000" points="1478.177 -2006 1323.931 -2006 1323.931 -1970 1478.177 -1970 1478.177 -2006"/><text x="1401.054" y="-1984.7" fill="#000" font-family="Courier,monospace" font-size="11" text-anchor="middle">SetupModuleController</text></g><g id="node52" class="node"><title>SetupModuleController</title><ellipse cx="1084" cy="-180" fill="none" stroke="#000" rx="94.222" ry="18"/><text x="1084" y="-175.8" fill="#000" font-family="Times,serif" font-size="14" text-anchor="middle">SetupModuleController</text></g><g id="edge1" class="edge"><title>\\CodeFareith\\CfGoogleAuthenticator\\Controller\\Backend\\SetupModuleController-&gt;SetupModuleController</title><path fill="none" stroke="#000" d="M1394.5689,-1969.8123C1372.9505,-1908.3417 1302.9366,-1702.3145 1271.4369,-1526 1216.7023,-1219.6319 1258.8927,-1136.1702 1215.4369,-828 1181.2824,-585.7907 1112.921,-297.834 1090.9624,-208.1019"/><polygon fill="none" stroke="#000" points="1094.304 -207.035 1088.52 -198.158 1087.506 -208.704 1094.304 -207.035"/></g><g id="node2" class="node"><title>\\CodeFareith\\CfGoogleAuthenticator\\Controller\\Frontend\\SetupController</title><polygon fill="none" stroke="#000" points="1458.57 -2085 1343.538 -2085 1343.538 -2049 1458.57 -2049 1458.57 -2085"/><text x="1401.054" y="-2063.7" fill="#000" font-family="Courier,monospace" font-size="11" text-anchor="middle">SetupController</text></g><g id="node48" class="node"><title>ActionController</title><ellipse cx="1084" cy="-2656" fill="none" stroke="#000" rx="70.551" ry="18"/><text x="1084" y="-2651.8" fill="silver" font-family="Times,serif" font-size="14" text-anchor="middle">ActionController</text></g><g id="edge25" class="edge"><title>\\CodeFareith\\CfGoogleAuthenticator\\Controller\\Frontend\\SetupController-&gt;ActionController</title><path fill="none" stroke="#000" d="M1391.2176,-2085.2735C1345.45,-2170.2972 1153.2639,-2527.3268 1098.5756,-2628.9229"/><polygon fill="none" stroke="#000" points="1095.38 -2627.475 1093.722 -2637.94 1101.544 -2630.793 1095.38 -2627.475"/></g><g id="node3" class="node"><title>\\CodeFareith\\CfGoogleAuthenticator\\Application\\Exception\\ValueTooSmall</title><polygon fill="none" stroke="#000" points="1451.868 -1495 1350.24 -1495 1350.24 -1459 1451.868 -1459 1451.868 -1495"/><text x="1401.054" y="-1473.7" fill="#000" font-family="Courier,monospace" font-size="11" text-anchor="middle">ValueTooSmall</text></g><g id="node5" class="node"><title>\\CodeFareith\\CfGoogleAuthenticator\\Application\\Exception\\InvalidArgumentValueException</title><polygon fill="none" stroke="#000" points="1187.932 -1495 980.069 -1495 980.069 -1459 1187.932 -1459 1187.932 -1495"/><text x="1084" y="-1473.7" fill="#000" font-family="Courier,monospace" font-size="11" text-anchor="middle">InvalidArgumentValueException</text></g><g id="edge10" class="edge"><title>\\CodeFareith\\CfGoogleAuthenticator\\Application\\Exception\\ValueTooSmall-&gt;\\CodeFareith\\CfGoogleAuthenticator\\Application\\Exception\\InvalidArgumentValueException</title><path fill="none" stroke="#000" d="M1350.1139,-1477C1309.2515,-1477 1250.3318,-1477 1198.3149,-1477"/><polygon fill="none" stroke="#000" points="1198.011 -1473.5 1188.011 -1477 1198.011 -1480.5 1198.011 -1473.5"/></g><g id="node4" class="node"><title>\\CodeFareith\\CfGoogleAuthenticator\\Application\\Exception\\StringLengthViolation</title><polygon fill="none" stroke="#000" points="1161.123 -1441 1006.877 -1441 1006.877 -1405 1161.123 -1405 1161.123 -1441"/><text x="1084" y="-1419.7" fill="#000" font-family="Courier,monospace" font-size="11" text-anchor="middle">StringLengthViolation</text></g><g id="node6" class="node"><title>\\CodeFareith\\CfGoogleAuthenticator\\Application\\Exception\\ApplicationException</title><polygon fill="none" stroke="#000" points="837.667 -1441 689.624 -1441 689.624 -1405 837.667 -1405 837.667 -1441"/><text x="763.646" y="-1419.7" fill="#000" font-family="Courier,monospace" font-size="11" text-anchor="middle">ApplicationException</text></g><g id="edge18" class="edge"><title>\\CodeFareith\\CfGoogleAuthenticator\\Application\\Exception\\StringLengthViolation-&gt;\\CodeFareith\\CfGoogleAuthenticator\\Application\\Exception\\ApplicationException</title><path fill="none" stroke="#000" stroke-dasharray="1 5" d="M1006.8596,-1423C958.9809,-1423 897.4208,-1423 848.2144,-1423"/><polygon fill="none" stroke="#000" points="847.911 -1419.5 837.911 -1423 847.911 -1426.5 847.911 -1419.5"/></g><g id="node49" class="node"><title>LengthException</title><ellipse cx="763.646" cy="-2616" fill="none" stroke="#000" rx="71.019" ry="18"/><text x="763.646" y="-2611.8" fill="silver" font-family="Times,serif" font-size="14" text-anchor="middle">LengthException</text></g><g id="edge17" class="edge"><title>\\CodeFareith\\CfGoogleAuthenticator\\Application\\Exception\\StringLengthViolation-&gt;LengthException</title><path fill="none" stroke="#000" d="M1006.7803,-1422.3493C986.315,-1426.1401 966.1602,-1434.1943 952.5634,-1450 875.4308,-1539.6634 951.399,-2408.2049 896.5634,-2513 877.1611,-2550.0794 837.8108,-2577.929 806.9364,-2595.259"/><polygon fill="none" stroke="#000" points="805.181 -2592.23 798.068 -2600.082 808.525 -2598.379 805.181 -2592.23"/></g><g id="edge22" class="edge"><title>\\CodeFareith\\CfGoogleAuthenticator\\Application\\Exception\\InvalidArgumentValueException-&gt;\\CodeFareith\\CfGoogleAuthenticator\\Application\\Exception\\ApplicationException</title><path fill="none" stroke="#000" stroke-dasharray="1 5" d="M979.9902,-1459.4677C937.2103,-1452.2566 888.3101,-1444.0139 847.8354,-1437.1913"/><polygon fill="none" stroke="#000" points="848.178 -1433.7 837.736 -1435.489 847.015 -1440.602 848.178 -1433.7"/></g><g id="node50" class="node"><title>InvalidArgumentException</title><ellipse cx="763.646" cy="-2670" fill="none" stroke="#000" rx="106.923" ry="18"/><text x="763.646" y="-2665.8" fill="silver" font-family="Times,serif" font-size="14" text-anchor="middle">InvalidArgumentException</text></g><g id="edge21" class="edge"><title>\\CodeFareith\\CfGoogleAuthenticator\\Application\\Exception\\InvalidArgumentValueException-&gt;InvalidArgumentException</title><path fill="none" stroke="#000" d="M1083.7969,-1495.3102C1081.9181,-1630.1535 1063.5604,-2469.0087 896.5634,-2643 889.8469,-2649.9978 881.8506,-2655.4426 873.1603,-2659.6531"/><polygon fill="none" stroke="#000" points="871.706 -2656.468 863.877 -2663.608 874.449 -2662.908 871.706 -2656.468"/></g><g id="node32" class="node"><title>\\CodeFareith\\CfGoogleAuthenticator\\Exception\\ExtensionException</title><polygon fill="none" stroke="#000" points="547.966 -274 413.328 -274 413.328 -238 547.966 -238 547.966 -274"/><text x="480.647" y="-252.7" fill="#000" font-family="Courier,monospace" font-size="11" text-anchor="middle">ExtensionException</text></g><g id="edge27" class="edge"><title>\\CodeFareith\\CfGoogleAuthenticator\\Application\\Exception\\ApplicationException-&gt;\\CodeFareith\\CfGoogleAuthenticator\\Exception\\ExtensionException</title><path fill="none" stroke="#000" d="M763.206,-1404.798C759.6485,-1272.5158 731.5332,-459.0049 574.7279,-283 569.832,-277.5046 563.8997,-273.0958 557.4218,-269.5633"/><polygon fill="none" stroke="#000" points="558.835 -266.36 548.296 -265.27 555.855 -272.694 558.835 -266.36"/></g><g id="node7" class="node"><title>\\CodeFareith\\CfGoogleAuthenticator\\Application\\Encoder\\Base32</title><polygon fill="none" stroke="#000" points="1428.662 -1362 1373.446 -1362 1373.446 -1326 1428.662 -1326 1428.662 -1362"/><text x="1401.054" y="-1340.7" fill="#000" font-family="Courier,monospace" font-size="11" text-anchor="middle">Base32</text></g><g id="node8" class="node"><title>\\CodeFareith\\CfGoogleAuthenticator\\Application\\Encoder\\Encoder</title><polygon fill="none" stroke="#000" points="1115.208 -1362 1052.792 -1362 1052.792 -1326 1115.208 -1326 1115.208 -1362"/><text x="1084" y="-1340.7" fill="#000" font-family="Courier,monospace" font-size="11" text-anchor="middle">Encoder</text></g><g id="edge12" class="edge"><title>\\CodeFareith\\CfGoogleAuthenticator\\Application\\Encoder\\Base32-&gt;\\CodeFareith\\CfGoogleAuthenticator\\Application\\Encoder\\Encoder</title><path fill="none" stroke="#000" stroke-dasharray="1 5" d="M1373.1956,-1344C1317.3714,-1344 1191.542,-1344 1125.7959,-1344"/><polygon fill="none" stroke="#000" points="1125.397 -1340.5 1115.397 -1344 1125.397 -1347.5 1125.397 -1340.5"/></g><g id="node9" class="node"><title>\\CodeFareith\\CfGoogleAuthenticator\\Application\\Utility\\ExtensionMetaData</title><polygon fill="none" stroke="#000" points="1465.273 -1283 1336.836 -1283 1336.836 -1247 1465.273 -1247 1465.273 -1283"/><text x="1401.054" y="-1261.7" fill="#000" font-family="Courier,monospace" font-size="11" text-anchor="middle">ExtensionMetaData</text></g><g id="node10" class="node"><title>\\CodeFareith\\CfGoogleAuthenticator\\Domain\\ValueObject\\ExtensionConfiguration</title><polygon fill="none" stroke="#000" points="844.37 -2482 682.922 -2482 682.922 -2446 844.37 -2446 844.37 -2482"/><text x="763.646" y="-2460.7" fill="#000" font-family="Courier,monospace" font-size="11" text-anchor="middle">ExtensionConfiguration</text></g><g id="node11" class="node"><title>\\CodeFareith\\CfGoogleAuthenticator\\Domain\\Validator\\SetupFormValidator</title><polygon fill="none" stroke="#000" points="830.965 -2324 696.326 -2324 696.326 -2288 830.965 -2288 830.965 -2324"/><text x="763.646" y="-2302.7" fill="#000" font-family="Courier,monospace" font-size="11" text-anchor="middle">SetupFormValidator</text></g><g id="node56" class="node"><title>GenericObjectValidator</title><ellipse cx="480.647" cy="-180" fill="none" stroke="#000" rx="94.162" ry="18"/><text x="480.647" y="-175.8" fill="#000" font-family="Times,serif" font-size="14" text-anchor="middle">GenericObjectValidator</text></g><g id="edge9" class="edge"><title>\\CodeFareith\\CfGoogleAuthenticator\\Domain\\Validator\\SetupFormValidator-&gt;GenericObjectValidator</title><path fill="none" stroke="#000" d="M696.0516,-2303.335C677.3095,-2299.1227 658.8111,-2291.0229 646.7279,-2276 503.8819,-2098.4001 698.7871,-417.1964 574.7279,-226 567.2423,-214.4633 555.9667,-205.7282 543.7942,-199.1463"/><polygon fill="none" stroke="#000" points="545.331 -196.002 534.814 -194.725 542.239 -202.282 545.331 -196.002"/></g><g id="node12" class="node"><title>\\CodeFareith\\CfGoogleAuthenticator\\Domain\\Exception\\DomainException</title><polygon fill="none" stroke="#000" points="821.162 -2403 706.13 -2403 706.13 -2367 821.162 -2367 821.162 -2403"/><text x="763.646" y="-2381.7" fill="#000" font-family="Courier,monospace" font-size="11" text-anchor="middle">DomainException</text></g><g id="edge28" class="edge"><title>\\CodeFareith\\CfGoogleAuthenticator\\Domain\\Exception\\DomainException-&gt;\\CodeFareith\\CfGoogleAuthenticator\\Exception\\ExtensionException</title><path fill="none" stroke="#000" d="M706.1202,-2384.2465C684.1473,-2380.8084 660.9749,-2372.7199 646.7279,-2355 502.3842,-2175.4696 716.5166,-464.5551 574.7279,-283 570.054,-277.0152 564.1451,-272.2971 557.5747,-268.5858"/><polygon fill="none" stroke="#000" points="558.79 -265.287 548.259 -264.125 555.766 -271.601 558.79 -265.287"/></g><g id="node13" class="node"><title>\\CodeFareith\\CfGoogleAuthenticator\\Domain\\DataTransferObject\\GoogleAuthenticatorSettingsDTO</title><polygon fill="none" stroke="#000" points="870.678 -2245 656.613 -2245 656.613 -2209 870.678 -2209 870.678 -2245"/><text x="763.646" y="-2223.7" fill="#000" font-family="Courier,monospace" font-size="11" text-anchor="middle">GoogleAuthenticatorSettingsDTO</text></g><g id="node14" class="node"><title>\\CodeFareith\\CfGoogleAuthenticator\\Domain\\DataTransferObject\\PreProcessFieldArrayDTO</title><polygon fill="none" stroke="#000" points="847.471 -2191 679.821 -2191 679.821 -2155 847.471 -2155 847.471 -2191"/><text x="763.646" y="-2169.7" fill="#000" font-family="Courier,monospace" font-size="11" text-anchor="middle">PreProcessFieldArrayDTO</text></g><g id="node15" class="node"><title>\\CodeFareith\\CfGoogleAuthenticator\\Domain\\Form\\SetupForm</title><polygon fill="none" stroke="#000" points="801.557 -2112 725.735 -2112 725.735 -2076 801.557 -2076 801.557 -2112"/><text x="763.646" y="-2090.7" fill="#000" font-family="Courier,monospace" font-size="11" text-anchor="middle">SetupForm</text></g><g id="node16" class="node"><title>\\CodeFareith\\CfGoogleAuthenticator\\Domain\\Form\\FormInterface</title><polygon fill="none" stroke="#000" points="531.461 -2112 429.833 -2112 429.833 -2076 531.461 -2076 531.461 -2112"/><text x="480.647" y="-2090.7" fill="#000" font-family="Courier,monospace" font-size="11" text-anchor="middle">FormInterface</text></g><g id="edge4" class="edge"><title>\\CodeFareith\\CfGoogleAuthenticator\\Domain\\Form\\SetupForm-&gt;\\CodeFareith\\CfGoogleAuthenticator\\Domain\\Form\\FormInterface</title><path fill="none" stroke="#000" stroke-dasharray="1 5" d="M725.7729,-2094C678.6988,-2094 597.753,-2094 541.8306,-2094"/><polygon fill="none" stroke="#000" points="541.694 -2090.5 531.694 -2094 541.694 -2097.5 541.694 -2090.5"/></g><g id="node17" class="node"><title>\\CodeFareith\\CfGoogleAuthenticator\\Domain\\Immutable\\AuthenticationSecret</title><polygon fill="none" stroke="#000" points="837.667 -2033 689.624 -2033 689.624 -1997 837.667 -1997 837.667 -2033"/><text x="763.646" y="-2011.7" fill="#000" font-family="Courier,monospace" font-size="11" text-anchor="middle">AuthenticationSecret</text></g><g id="node18" class="node"><title>\\CodeFareith\\CfGoogleAuthenticator\\Domain\\Immutable\\ImmutableInterface</title><polygon fill="none" stroke="#000" points="547.966 -2033 413.328 -2033 413.328 -1997 547.966 -1997 547.966 -2033"/><text x="480.647" y="-2011.7" fill="#000" font-family="Courier,monospace" font-size="11" text-anchor="middle">ImmutableInterface</text></g><g id="edge8" class="edge"><title>\\CodeFareith\\CfGoogleAuthenticator\\Domain\\Immutable\\AuthenticationSecret-&gt;\\CodeFareith\\CfGoogleAuthenticator\\Domain\\Immutable\\ImmutableInterface</title><path fill="none" stroke="#000" stroke-dasharray="1 5" d="M689.2911,-2015C648.9819,-2015 599.2089,-2015 558.3874,-2015"/><polygon fill="none" stroke="#000" points="558.213 -2011.5 548.213 -2015 558.213 -2018.5 558.213 -2011.5"/></g><g id="node19" class="node"><title>\\CodeFareith\\CfGoogleAuthenticator\\Domain\\Mapper\\AbstractMapper</title><polygon fill="none" stroke="#000" points="535.063 -1954 426.231 -1954 426.231 -1918 535.063 -1918 535.063 -1954"/><text x="447.642" y="-1938.2" fill="#000" font-family="Courier,monospace" font-size="11" text-anchor="start">«abstract»</text><text x="434.44" y="-1927.2" fill="#000" font-family="Courier,monospace" font-size="11" text-anchor="start">AbstractMapper</text></g><g id="node21" class="node"><title>\\CodeFareith\\CfGoogleAuthenticator\\Domain\\Mapper\\MapperInterface</title><polygon fill="none" stroke="#000" points="314.574 -1954 199.542 -1954 199.542 -1918 314.574 -1918 314.574 -1954"/><text x="257.058" y="-1932.7" fill="#000" font-family="Courier,monospace" font-size="11" text-anchor="middle">MapperInterface</text></g><g id="edge20" class="edge"><title>\\CodeFareith\\CfGoogleAuthenticator\\Domain\\Mapper\\AbstractMapper-&gt;\\CodeFareith\\CfGoogleAuthenticator\\Domain\\Mapper\\MapperInterface</title><path fill="none" stroke="#000" stroke-dasharray="1 5" d="M426.237,-1936C395.7939,-1936 357.5617,-1936 325.1475,-1936"/><polygon fill="none" stroke="#000" points="324.845 -1932.5 314.845 -1936 324.845 -1939.5 324.845 -1932.5"/></g><g id="node20" class="node"><title>\\CodeFareith\\CfGoogleAuthenticator\\Domain\\Mapper\\GoogleAuthenticatorSettingsMapper</title><polygon fill="none" stroke="#000" points="880.481 -1954 646.81 -1954 646.81 -1918 880.481 -1918 880.481 -1954"/><text x="763.646" y="-1932.7" fill="#000" font-family="Courier,monospace" font-size="11" text-anchor="middle">GoogleAuthenticatorSettingsMapper</text></g><g id="edge26" class="edge"><title>\\CodeFareith\\CfGoogleAuthenticator\\Domain\\Mapper\\GoogleAuthenticatorSettingsMapper-&gt;\\CodeFareith\\CfGoogleAuthenticator\\Domain\\Mapper\\AbstractMapper</title><path fill="none" stroke="#000" d="M646.4965,-1936C611.9468,-1936 575.4002,-1936 545.433,-1936"/><polygon fill="none" stroke="#000" points="545.122 -1932.5 535.122 -1936 545.122 -1939.5 545.122 -1932.5"/></g><g id="node22" class="node"><title>\\CodeFareith\\CfGoogleAuthenticator\\Domain\\Model\\BackendUser</title><polygon fill="none" stroke="#000" points="807.758 -1796 719.533 -1796 719.533 -1760 807.758 -1760 807.758 -1796"/><text x="763.646" y="-1774.7" fill="#000" font-family="Courier,monospace" font-size="11" text-anchor="middle">BackendUser</text></g><g id="node54" class="node"><title>BackendUser</title><ellipse cx="480.647" cy="-126" fill="none" stroke="#000" rx="57.989" ry="18"/><text x="480.647" y="-121.8" fill="#000" font-family="Times,serif" font-size="14" text-anchor="middle">BackendUser</text></g><g id="edge3" class="edge"><title>\\CodeFareith\\CfGoogleAuthenticator\\Domain\\Model\\BackendUser-&gt;BackendUser</title><path fill="none" stroke="#000" d="M719.443,-1779.9572C694.1684,-1778.4986 664.1259,-1771.8904 646.7279,-1751 532.9858,-1614.4251 684.8446,-292.5145 574.7279,-153 567.5624,-143.9214 557.5568,-137.7617 546.7278,-133.6106"/><polygon fill="none" stroke="#000" points="547.643 -130.228 537.05 -130.457 545.473 -136.883 547.643 -130.228"/></g><g id="node23" class="node"><title>\\CodeFareith\\CfGoogleAuthenticator\\Domain\\Model\\FrontendUser</title><polygon fill="none" stroke="#000" points="811.359 -1742 715.933 -1742 715.933 -1706 811.359 -1706 811.359 -1742"/><text x="763.646" y="-1720.7" fill="#000" font-family="Courier,monospace" font-size="11" text-anchor="middle">FrontendUser</text></g><g id="node57" class="node"><title>FrontendUser</title><ellipse cx="480.647" cy="-72" fill="none" stroke="#000" rx="58.975" ry="18"/><text x="480.647" y="-67.8" fill="#000" font-family="Times,serif" font-size="14" text-anchor="middle">FrontendUser</text></g><g id="edge11" class="edge"><title>\\CodeFareith\\CfGoogleAuthenticator\\Domain\\Model\\FrontendUser-&gt;FrontendUser</title><path fill="none" stroke="#000" d="M715.8136,-1724.4127C691.2838,-1721.897 663.1811,-1714.2479 646.7279,-1694 534.8521,-1556.321 684.6442,-238.2485 574.7279,-99 567.6434,-90.0249 557.7832,-83.9026 547.096,-79.7534"/><polygon fill="none" stroke="#000" points="548.134 -76.41 537.54 -76.593 545.936 -83.056 548.134 -76.41"/></g><g id="node24" class="node"><title>\\CodeFareith\\CfGoogleAuthenticator\\Domain\\Repository\\FrontendUserRepository</title><polygon fill="none" stroke="#000" points="844.37 -1663 682.922 -1663 682.922 -1627 844.37 -1627 844.37 -1663"/><text x="763.646" y="-1641.7" fill="#000" font-family="Courier,monospace" font-size="11" text-anchor="middle">FrontendUserRepository</text></g><g id="node55" class="node"><title>Repository</title><ellipse cx="480.647" cy="-18" fill="none" stroke="#000" rx="48.836" ry="18"/><text x="480.647" y="-13.8" fill="#000" font-family="Times,serif" font-size="14" text-anchor="middle">Repository</text></g><g id="edge6" class="edge"><title>\\CodeFareith\\CfGoogleAuthenticator\\Domain\\Repository\\FrontendUserRepository-&gt;Repository</title><path fill="none" stroke="#000" d="M682.958,-1640.693C669.0364,-1636.297 656.0642,-1629.2022 646.7279,-1618 534.7136,-1483.5974 683.1745,-182.2976 574.7279,-45 565.9134,-33.8404 552.8078,-27.0917 539.1586,-23.0625"/><polygon fill="none" stroke="#000" points="539.726 -19.597 529.177 -20.585 538.04 -26.391 539.726 -19.597"/></g><g id="node25" class="node"><title>\\CodeFareith\\CfGoogleAuthenticator\\Domain\\Repository\\BackendUserRepository</title><polygon fill="none" stroke="#000" points="840.769 -1609 686.523 -1609 686.523 -1573 840.769 -1573 840.769 -1609"/><text x="763.646" y="-1587.7" fill="#000" font-family="Courier,monospace" font-size="11" text-anchor="middle">BackendUserRepository</text></g><g id="edge24" class="edge"><title>\\CodeFareith\\CfGoogleAuthenticator\\Domain\\Repository\\BackendUserRepository-&gt;Repository</title><path fill="none" stroke="#000" d="M706.0933,-1572.8627C683.6937,-1562.7512 660.211,-1547.6987 646.7279,-1526 559.7757,-1386.0649 677.0287,-174.1398 574.7279,-45 565.8976,-33.8529 552.7865,-27.1085 539.1371,-23.0795"/><polygon fill="none" stroke="#000" points="539.705 -19.614 529.157 -20.602 538.019 -26.408 539.705 -19.614"/></g><g id="node26" class="node"><title>\\CodeFareith\\CfGoogleAuthenticator\\Domain\\Struct\\GoogleAuthenticatorSettings</title><polygon fill="none" stroke="#000" points="860.875 -1875 666.417 -1875 666.417 -1839 860.875 -1839 860.875 -1875"/><text x="763.646" y="-1853.7" fill="#000" font-family="Courier,monospace" font-size="11" text-anchor="middle">GoogleAuthenticatorSettings</text></g><g id="node27" class="node"><title>\\CodeFareith\\CfGoogleAuthenticator\\Domain\\Struct\\AbstractStruct</title><polygon fill="none" stroke="#000" points="535.063 -1875 426.231 -1875 426.231 -1839 535.063 -1839 535.063 -1875"/><text x="447.642" y="-1859.2" fill="#000" font-family="Courier,monospace" font-size="11" text-anchor="start">«abstract»</text><text x="434.44" y="-1848.2" fill="#000" font-family="Courier,monospace" font-size="11" text-anchor="start">AbstractStruct</text></g><g id="edge16" class="edge"><title>\\CodeFareith\\CfGoogleAuthenticator\\Domain\\Struct\\GoogleAuthenticatorSettings-&gt;\\CodeFareith\\CfGoogleAuthenticator\\Domain\\Struct\\AbstractStruct</title><path fill="none" stroke="#000" d="M666.2536,-1857C626.2354,-1857 580.9874,-1857 545.1863,-1857"/><polygon fill="none" stroke="#000" points="544.875 -1853.5 534.875 -1857 544.875 -1860.5 544.875 -1853.5"/></g><g id="node28" class="node"><title>\\CodeFareith\\CfGoogleAuthenticator\\Domain\\Struct\\StructInterface</title><polygon fill="none" stroke="#000" points="314.574 -1875 199.542 -1875 199.542 -1839 314.574 -1839 314.574 -1875"/><text x="257.058" y="-1853.7" fill="#000" font-family="Courier,monospace" font-size="11" text-anchor="middle">StructInterface</text></g><g id="edge23" class="edge"><title>\\CodeFareith\\CfGoogleAuthenticator\\Domain\\Struct\\AbstractStruct-&gt;\\CodeFareith\\CfGoogleAuthenticator\\Domain\\Struct\\StructInterface</title><path fill="none" stroke="#000" stroke-dasharray="1 5" d="M426.237,-1857C395.7939,-1857 357.5617,-1857 325.1475,-1857"/><polygon fill="none" stroke="#000" points="324.845 -1853.5 314.845 -1857 324.845 -1860.5 324.845 -1853.5"/></g><g id="node51" class="node"><title>ArrayAccess</title><ellipse cx="71.775" cy="-1857" fill="none" stroke="#000" rx="55.551" ry="18"/><text x="71.775" y="-1852.8" fill="silver" font-family="Times,serif" font-size="14" text-anchor="middle">ArrayAccess</text></g><g id="edge29" class="edge"><title>\\CodeFareith\\CfGoogleAuthenticator\\Domain\\Struct\\StructInterface-&gt;ArrayAccess</title><path fill="none" stroke="#000" d="M199.449,-1857C179.9104,-1857 157.9337,-1857 137.7919,-1857"/><polygon fill="none" stroke="#000" points="137.761 -1853.5 127.761 -1857 137.761 -1860.5 137.761 -1853.5"/></g><g id="node29" class="node"><title>\\CodeFareith\\CfGoogleAuthenticator\\Exception\\PropertyNotFound</title><polygon fill="none" stroke="#000" points="541.265 -328 420.029 -328 420.029 -292 541.265 -292 541.265 -328"/><text x="480.647" y="-306.7" fill="#000" font-family="Courier,monospace" font-size="11" text-anchor="middle">PropertyNotFound</text></g><g id="node53" class="node"><title>Exception</title><ellipse cx="257.058" cy="-180" fill="none" stroke="#000" rx="45.92" ry="18"/><text x="257.058" y="-175.8" fill="#000" font-family="Times,serif" font-size="14" text-anchor="middle">Exception</text></g><g id="edge2" class="edge"><title>\\CodeFareith\\CfGoogleAuthenticator\\Exception\\PropertyNotFound-&gt;Exception</title><path fill="none" stroke="#000" d="M419.5736,-296.2644C408.2916,-292.677 396.8385,-288.2916 386.5662,-283 346.0076,-262.1071 305.93,-227.4971 281.3456,-204.2298"/><polygon fill="none" stroke="#000" points="283.564 -201.508 273.927 -197.106 278.716 -206.557 283.564 -201.508"/></g><g id="node30" class="node"><title>\\CodeFareith\\CfGoogleAuthenticator\\Exception\\MissingRequiredField</title><polygon fill="none" stroke="#000" points="554.668 -436 406.626 -436 406.626 -400 554.668 -400 554.668 -436"/><text x="480.647" y="-414.7" fill="#000" font-family="Courier,monospace" font-size="11" text-anchor="middle">MissingRequiredField</text></g><g id="edge5" class="edge"><title>\\CodeFareith\\CfGoogleAuthenticator\\Exception\\MissingRequiredField-&gt;Exception</title><path fill="none" stroke="#000" d="M406.1954,-402.4267C399.2046,-399.2909 392.5189,-395.5242 386.5662,-391 322.7794,-342.5201 283.2208,-252.7721 266.4261,-207.5565"/><polygon fill="none" stroke="#000" points="269.698 -206.312 263.005 -198.099 263.115 -208.693 269.698 -206.312"/></g><g id="node31" class="node"><title>\\CodeFareith\\CfGoogleAuthenticator\\Exception\\PropertyNotInitialized</title><polygon fill="none" stroke="#000" points="561.371 -382 399.923 -382 399.923 -346 561.371 -346 561.371 -382"/><text x="480.647" y="-360.7" fill="#000" font-family="Courier,monospace" font-size="11" text-anchor="middle">PropertyNotInitialized</text></g><g id="edge7" class="edge"><title>\\CodeFareith\\CfGoogleAuthenticator\\Exception\\PropertyNotInitialized-&gt;Exception</title><path fill="none" stroke="#000" d="M402.9595,-345.8824C397.2199,-343.2984 391.6823,-340.3539 386.5662,-337 334.6197,-302.9464 292.9473,-241.63 271.9334,-206.5501"/><polygon fill="none" stroke="#000" points="274.884 -204.663 266.802 -197.812 268.848 -208.208 274.884 -204.663"/></g><g id="node33" class="node"><title>\\CodeFareith\\CfGoogleAuthenticator\\Handler\\GoogleAuthenticatorSetupHandler</title><polygon fill="none" stroke="#000" points="1511.188 -1196 1290.92 -1196 1290.92 -1160 1511.188 -1160 1511.188 -1196"/><text x="1401.054" y="-1174.7" fill="#000" font-family="Courier,monospace" font-size="11" text-anchor="middle">GoogleAuthenticatorSetupHandler</text></g><g id="node34" class="node"><title>\\CodeFareith\\CfGoogleAuthenticator\\Hook\\UserSettings</title><polygon fill="none" stroke="#000" points="1448.767 -1117 1353.341 -1117 1353.341 -1081 1448.767 -1081 1448.767 -1117"/><text x="1401.054" y="-1095.7" fill="#000" font-family="Courier,monospace" font-size="11" text-anchor="middle">UserSettings</text></g><g id="node35" class="node"><title>\\CodeFareith\\CfGoogleAuthenticator\\Hook\\FeLogin</title><polygon fill="none" stroke="#000" points="1432.262 -1063 1369.846 -1063 1369.846 -1027 1432.262 -1027 1432.262 -1063"/><text x="1401.054" y="-1041.7" fill="#000" font-family="Courier,monospace" font-size="11" text-anchor="middle">FeLogin</text></g><g id="node36" class="node"><title>\\CodeFareith\\CfGoogleAuthenticator\\Hook\\TCEMain</title><polygon fill="none" stroke="#000" points="1432.262 -1009 1369.846 -1009 1369.846 -973 1432.262 -973 1432.262 -1009"/><text x="1401.054" y="-987.7" fill="#000" font-family="Courier,monospace" font-size="11" text-anchor="middle">TCEMain</text></g><g id="node37" class="node"><title>\\CodeFareith\\CfGoogleAuthenticator\\Provider\\Login\\GoogleAuthenticatorLoginProvider</title><polygon fill="none" stroke="#000" points="1514.789 -770 1287.32 -770 1287.32 -734 1514.789 -734 1514.789 -770"/><text x="1401.054" y="-748.7" fill="#000" font-family="Courier,monospace" font-size="11" text-anchor="middle">GoogleAuthenticatorLoginProvider</text></g><g id="node58" class="node"><title>UsernamePasswordLoginProvider</title><ellipse cx="1084" cy="-72" fill="none" stroke="#000" rx="131.374" ry="18"/><text x="1084" y="-67.8" fill="#000" font-family="Times,serif" font-size="14" text-anchor="middle">UsernamePasswordLoginProvider</text></g><g id="edge13" class="edge"><title>\\CodeFareith\\CfGoogleAuthenticator\\Provider\\Login\\GoogleAuthenticatorLoginProvider-&gt;UsernamePasswordLoginProvider</title><path fill="none" stroke="#000" d="M1296.0113,-733.8906C1286.6764,-728.7533 1278.2139,-722.2412 1271.4369,-714 1184.273,-608.0042 1306.9016,-201.3076 1215.4369,-99 1211.3588,-94.4385 1206.734,-90.5288 1201.7175,-87.1851"/><polygon fill="none" stroke="#000" points="1203.337 -84.078 1192.933 -82.077 1199.818 -90.129 1203.337 -84.078"/></g><g id="node38" class="node"><title>\\CodeFareith\\CfGoogleAuthenticator\\Service\\GoogleQrCodeGenerator</title><polygon fill="none" stroke="#000" points="1478.177 -930 1323.931 -930 1323.931 -894 1478.177 -894 1478.177 -930"/><text x="1401.054" y="-908.7" fill="#000" font-family="Courier,monospace" font-size="11" text-anchor="middle">GoogleQrCodeGenerator</text></g><g id="node40" class="node"><title>\\CodeFareith\\CfGoogleAuthenticator\\Service\\QrCodeGeneratorInterface</title><polygon fill="none" stroke="#000" points="1171.427 -930 996.574 -930 996.574 -894 1171.427 -894 1171.427 -930"/><text x="1084" y="-908.7" fill="#000" font-family="Courier,monospace" font-size="11" text-anchor="middle">QrCodeGeneratorInterface</text></g><g id="edge14" class="edge"><title>\\CodeFareith\\CfGoogleAuthenticator\\Service\\GoogleQrCodeGenerator-&gt;\\CodeFareith\\CfGoogleAuthenticator\\Service\\QrCodeGeneratorInterface</title><path fill="none" stroke="#000" stroke-dasharray="1 5" d="M1323.8994,-912C1281.0412,-912 1227.2964,-912 1181.5462,-912"/><polygon fill="none" stroke="#000" points="1181.311 -908.5 1171.311 -912 1181.311 -915.5 1181.311 -908.5"/></g><g id="node39" class="node"><title>\\CodeFareith\\CfGoogleAuthenticator\\Service\\GoogleAuthenticatorService</title><polygon fill="none" stroke="#000" points="1494.682 -876 1307.426 -876 1307.426 -840 1494.682 -840 1494.682 -876"/><text x="1401.054" y="-854.7" fill="#000" font-family="Courier,monospace" font-size="11" text-anchor="middle">GoogleAuthenticatorService</text></g><g id="node59" class="node"><title>AuthenticationService</title><ellipse cx="1084" cy="-126" fill="none" stroke="#000" rx="89.36" ry="18"/><text x="1084" y="-121.8" fill="#000" font-family="Times,serif" font-size="14" text-anchor="middle">AuthenticationService</text></g><g id="edge15" class="edge"><title>\\CodeFareith\\CfGoogleAuthenticator\\Service\\GoogleAuthenticatorService-&gt;AuthenticationService</title><path fill="none" stroke="#000" d="M1324.4795,-839.8734C1304.1601,-831.3748 1284.3163,-818.9893 1271.4369,-801 1187.2973,-683.4781 1311.522,-260.9746 1215.4369,-153 1206.49,-142.9459 1194.8871,-136.0547 1182.2829,-131.4108"/><polygon fill="none" stroke="#000" points="1183.067 -127.987 1172.476 -128.282 1180.94 -134.656 1183.067 -127.987"/></g><g id="node41" class="node"><title>\\CodeFareith\\CfGoogleAuthenticator\\Traits\\GeneralUtilityObjectManager</title><polygon fill="none" stroke="#000" points="1498.283 -683 1303.825 -683 1303.825 -647 1498.283 -647 1498.283 -683"/><text x="1401.054" y="-661.7" fill="#000" font-family="Courier,monospace" font-size="11" text-anchor="middle">GeneralUtilityObjectManager</text></g><g id="node42" class="node"><title>\\CodeFareith\\CfGoogleAuthenticator\\Utility\\ExtensionBasicDataUtility</title><polygon fill="none" stroke="#000" points="1491.581 -604 1310.527 -604 1310.527 -568 1491.581 -568 1491.581 -604"/><text x="1401.054" y="-582.7" fill="#000" font-family="Courier,monospace" font-size="11" text-anchor="middle">ExtensionBasicDataUtility</text></g><g id="node43" class="node"><title>\\CodeFareith\\CfGoogleAuthenticator\\Utility\\Base32Utility</title><polygon fill="none" stroke="#000" points="1451.868 -550 1350.24 -550 1350.24 -514 1451.868 -514 1451.868 -550"/><text x="1401.054" y="-528.7" fill="#000" font-family="Courier,monospace" font-size="11" text-anchor="middle">Base32Utility</text></g><g id="node44" class="node"><title>\\CodeFareith\\CfGoogleAuthenticator\\Utility\\TypoScriptUtility</title><polygon fill="none" stroke="#000" points="1465.273 -496 1336.836 -496 1336.836 -460 1465.273 -460 1465.273 -496"/><text x="1401.054" y="-474.7" fill="#000" font-family="Courier,monospace" font-size="11" text-anchor="middle">TypoScriptUtility</text></g><g id="node45" class="node"><title>\\CodeFareith\\CfGoogleAuthenticator\\Utility\\GoogleAuthenticatorUtility</title><polygon fill="none" stroke="#000" points="1494.682 -442 1307.426 -442 1307.426 -406 1494.682 -406 1494.682 -442"/><text x="1401.054" y="-420.7" fill="#000" font-family="Courier,monospace" font-size="11" text-anchor="middle">GoogleAuthenticatorUtility</text></g><g id="node46" class="node"><title>\\CodeFareith\\CfGoogleAuthenticator\\Utility\\PathUtility</title><polygon fill="none" stroke="#000" points="1445.167 -388 1356.941 -388 1356.941 -352 1445.167 -352 1445.167 -388"/><text x="1401.054" y="-366.7" fill="#000" font-family="Courier,monospace" font-size="11" text-anchor="middle">PathUtility</text></g><g id="node47" class="node"><title>\\CodeFareith\\CfGoogleAuthenticator\\Validation\\Validator\\SetupFormValidator</title><polygon fill="none" stroke="#000" points="1468.374 -282 1333.735 -282 1333.735 -246 1468.374 -246 1468.374 -282"/><text x="1401.054" y="-260.7" fill="#000" font-family="Courier,monospace" font-size="11" text-anchor="middle">SetupFormValidator</text></g><g id="edge19" class="edge"><title>\\CodeFareith\\CfGoogleAuthenticator\\Validation\\Validator\\SetupFormValidator-&gt;GenericObjectValidator</title><path fill="none" stroke="#000" d="M1392.6089,-245.8536C1370.7838,-201.4307 1307.6909,-87.7412 1215.4369,-45 1109.4287,4.1135 1068.2642,-28.7763 952.5634,-45 949.9578,-45.3654 670.2053,-125.6001 542.7083,-162.187"/><polygon fill="none" stroke="#000" points="541.708 -158.833 533.061 -164.955 543.639 -165.561 541.708 -158.833"/></g></g></svg>